<?xml version="1.0" encoding="UTF-8"?><svg id="Layer_2" xmlns="http://www.w3.org/2000/svg" viewBox="0 0 352.18 396.36"><defs><style>.cls-1{fill:#070707;stroke-width:0px;}</style></defs><g id="Layer_1-2"><g id="oqWCDK.tif"><path class="cls-1" d="M140.84,262.8c-6.51,5.77-12.79,11.23-18.89,16.89-.83.77-1.28,2.66-1.01,3.83,3.05,13.24,10.49,23.86,21.06,31.96,8.75,6.7,18.23,12.47,27.53,18.42,10.91,6.99,22.33,13.24,32.87,20.73,12,8.52,20.12,20.63,27.68,33.43-5.02,2.91-9.82,5.69-14.31,8.3-3.69-5.26-6.99-10.6-10.92-15.44-9.54-11.74-21.91-19.97-34.89-27.41-9.9-5.68-19.86-11.28-29.52-17.35-13.6-8.54-23.5-20.52-30.65-34.83-.83-1.65-1.66-3.31-2.65-5.29-1.23,1.41-2.41,2.66-3.47,3.99-4.29,5.4-9.86,7.3-16.64,6.59-1.7-.18-3.9.4-5.25,1.44-5.09,3.96-9.75,8.5-14.9,12.37-9.39,7.06-21.12,5.87-28.53-2.6-3.17-3.62-4.67-7.86-4.25-12.72,1.1-12.57.1-25.07-1.63-37.49-4.44-31.86-13.24-62.82-19.95-94.21-3.83-17.93-7.85-35.82-11.13-53.85-2.17-11.91-1.95-23.99,1.42-35.79,2.51-8.77,7.68-15.52,15.64-20.07C66.73,36.11,117.98,16.55,172.66,6.22,198.43,1.35,224.45-.87,250.67.31c15.25.69,30.49,2.16,45.22,6.41,21.5,6.2,36.02,25.32,35.51,47.67-.21,9.17-2.51,18.33-4.22,27.43-2.44,13.05-5.34,26.01-7.73,39.07-.42,2.32.1,5.2,1.16,7.33,10.27,20.52,17.35,42.06,21.24,64.65,2.68,15.58,3.53,31.3,3.53,47.09,0,18.42-.02,36.84.32,55.26.21,11.57,1.8,22.98,6.39,33.8.3.72-.09,2.36-.69,2.73-4.03,2.54-8.21,4.85-12.55,7.35-3.47-7.87-6.42-15.66-7.93-23.97-3.22-17.73-3.48-35.61-3.07-53.56.31-13.41.73-26.86.02-40.24-1.84-34.74-10.68-67.57-29.81-96.96-11.83-18.18-24.61-35.76-37.11-53.5-1.62-2.3-3.89-4.38-6.31-5.79-2.36-1.37-4.96-.36-6.92,1.65-2.01,2.07-3.38,4.43-2.29,7.39.74,2,1.65,3.98,2.78,5.79,13.32,21.27,24.48,43.64,34.32,66.7.42.98.72,2.01,1.17,3.27-5.13,2.04-10.17,4.04-15.58,6.2-2.27-4.97-4.68-9.84-6.75-14.85-8.71-21.11-20.54-40.54-32.22-60.05-4.32-7.21-8.56-14.47-12.84-21.69-2.4-4.05-6.44-5.66-10.46-4.22-5.29,1.9-7.88,8.3-4.34,12.72,14.39,17.98,21.63,39.49,30.41,60.25,3.76,8.89,7.44,17.82,11.32,27.11-5.27,2.09-10.37,4.12-15.8,6.28-1.44-3.4-2.8-6.6-4.14-9.81-7.01-16.75-13.5-33.75-21.23-50.16-4.3-9.12-10.53-17.35-16.15-25.81-5.2-7.82-10.7-15.44-16.14-23.1-2.27-3.2-5.42-4.82-9.4-4.06-6.32,1.21-9.46,7.28-7.11,13.54.27.73.6,1.45,1.01,2.11,16.29,26.48,28.84,54.8,40.98,83.32,1.98,4.65,3.95,9.31,6.04,14.25-5.29,2.1-10.24,4.06-15.68,6.21-1.99-4.57-4.03-8.96-5.83-13.45-11.21-27.9-24.75-54.65-39.78-80.67-2.79-4.83-7.04-6.67-11.8-5.19-4.96,1.55-8.18,5.69-7.67,10.47.22,2.06,1.06,4.16,2.03,6.03,11.49,22.33,22.9,44.71,34.68,66.89,6.27,11.81,10.17,24.02,10.05,37.52-.11,11.6,3.95,22.21,8.74,32.58,4.47,9.67,8,19.59,6.69,30.51-.65,5.43-1.15,10.93-2.5,16.2-3.07,11.97-15.77,16.2-25.34,8.38-4.29-3.5-7.81-7.94-11.67-11.96-.73-.77-1.42-1.58-2.36-2.64ZM304.33,104.49c3.3-14.36,6.55-27.8,9.46-41.31,4.57-21.2-8.34-38.89-28.16-41.25-13.1-1.56-26.25-2.81-39.42-3.57-25.53-1.47-50.83.89-75.92,5.68-29.94,5.72-58.83,14.93-86.9,26.74-11.04,4.65-21.89,9.72-33.28,14.8,1.17.64,1.75,1,2.36,1.29,14.24,6.84,24.73,17.51,31.36,31.74,10.86,23.3,13.45,47.54,7.52,72.66-3.6,15.25-5.67,30.74-6.76,46.36-1.01,14.6-.74,29.19,1.22,43.69,1.17,8.65,2.95,17.21,4.46,25.81.31.05.62.1.92.15,1.25-1.32,2.49-2.65,3.75-3.97,6.9-7.23,13.66-14.59,20.73-21.65,11.05-11.04,23.9-19.17,39.04-23.49,2.76-.79,5.45-1.85,8.34-2.85-1.72-3.97-3.24-7.56-4.81-11.13-5.12-11.58-8.33-23.6-8.05-36.36.15-6.98-1.13-13.65-4.23-19.88-4.4-8.83-8.96-17.58-13.48-26.35-8.56-16.58-17.22-33.11-25.7-49.73-6.59-12.91-3.21-27.28,8.08-35.28,5.31-3.76,11.31-5.3,17.71-5.17,2.44.05,3.71-.64,4.99-2.83,2.15-3.69,4.6-7.35,7.58-10.37,7.58-7.7,17.6-9.22,26.81-3.63,5.02,3.04,9.2,7.48,13.72,11.32.7.6,1.24,1.39,1.96,2.21,6.83-7.7,14.86-11.55,25-10.01,10.26,1.56,16.44,8.29,21.14,17.08,2.34-1.27,4.39-2.37,6.42-3.5,7.38-4.09,15.02-5.6,23-1.91,5.22,2.42,8.94,6.54,12.07,11.29,7.05,10.71,14.13,21.4,21.24,32.07,2.42,3.64,4.96,7.2,7.82,11.33ZM51.04,292.48c0,2.62-.01,6.83,0,11.04.02,4.25,1.39,5.14,5.19,3.35,6.29-2.96,10.78-7.99,15.26-13.08,1.8-2.05,2.09-3.99,1.63-6.63-2.2-12.69-4.63-25.37-6.07-38.16-1.91-16.94.48-33.76,2.93-50.53,2.43-16.62,4.97-33.23,6.91-49.91,2.38-20.48-3.47-38.68-16.68-54.49-7.86-9.41-17.7-14.95-30.2-15.06-4.96-.05-8.01,1.65-9.37,6.36-1.47,5.12-2.63,10.44-3.01,15.74-.91,12.71,1.76,25.07,4.55,37.4,7.64,33.86,15.07,67.76,22.74,101.61,3.79,16.73,6.82,33.52,6.1,52.37ZM163.65,263.38l.77-.47v-8.94c-2.27.37-4.38.72-7.29,1.2,2.43,3.07,4.48,5.64,6.52,8.22Z"/></g></g></svg>