<?xml version="1.0" encoding="UTF-8"?><svg id="Layer_2" xmlns="http://www.w3.org/2000/svg" viewBox="0 0 396 430.5"><defs><style>.cls-1{fill:#3d3935;stroke-width:0px;}</style></defs><g id="Layer_1-2"><path class="cls-1" d="M0,430.44c.01-14.46,3.48-27.37,9.07-39.79,7.28-16.2,17.63-30.35,29.06-43.81,1.35-1.59,2.34-3.89,2.58-5.96,3.57-31.21,6.78-62.47,14.67-92.98,4.46-17.25,10.3-33.96,21.36-48.32,11.35-14.72,26.41-22.92,44.77-24.9,5.18-.56,8.51-2.2,11.46-7,15.75-25.63,37-44.84,66.27-53.99,11.44-3.58,23.14-5.24,35.16-4.26.94.08,2.24-.17,2.84-.79,17.11-17.74,38.93-27.37,61.39-35.99,13.66-5.24,27.27-10.66,40.72-16.41,5.04-2.16,9.74-5.25,14.31-8.33,6.86-4.62,11.32-10.95,13.23-19.21,2.16-9.34,4.86-18.55,7.56-28.69.8,1.78,1.35,2.81,1.75,3.9,7.44,20.14,14.98,40.23,17.75,61.74,5.42,41.99.99,82-24.12,117.58-5.77,8.18-13.4,15.04-19.98,22.67-1.47,1.7-3.01,4.05-3.07,6.15-1.55,52.89-32.94,86.58-82.92,98.19-3.59.83-5.81,2.24-7.63,5.68-12.25,23.2-32.06,35.57-57.66,39.49-22.75,3.48-45.52,1.51-68.28.43-23.29-1.1-46.56-1.93-69.8.59-1.65.18-3.69.82-4.73,1.98-14.7,16.56-27.72,34.17-33.15,56.19-.97,3.92-1.55,8-1.77,12.04-.16,3-1.21,3.96-4.11,3.86-5.34-.17-10.7-.05-16.73-.05ZM79.46,333.15c2.19.72,2.61.97,3.03.98,29.8.89,59.6,2.06,89.41,2.51,15.32.23,30.66-.95,44.68-8.34,5.75-3.04,10.9-6.82,15.08-12.95h-17.63v-20.44c2.3,0,4.24.06,6.17,0,15.83-.56,31.52-2.18,46.74-6.82,29.2-8.91,49.68-26.5,56.77-57.32.45-1.94.69-3.93,1.11-6.34-9.08,4.29-17.38,8.21-26.06,12.3-2.69-6.95-5.07-13.07-7.44-19.19,84.89-33.15,90.73-110.35,80.17-156.98-3.99,2.77-7.68,6.17-12.02,8.2-14.42,6.74-29.08,12.97-43.63,19.42-15,6.65-30.43,12.5-44.87,20.2-16.33,8.72-28.34,21.89-32.52,40.7-1.19,5.36-1.59,10.89-2.4,16.64h-20.11c-.18-12.33,2.35-23.77,6.63-34.95-7.83-.74-21.33,2.99-32.01,8.71-20.59,11.02-34.97,27.99-45.46,48.39-5.11,9.93-9.18,20.4-13.92,31.09-6.01-1.93-12.26-3.95-18.89-6.09,1.95-5.64,3.72-10.78,5.5-15.92-.33-.45-.66-.91-.99-1.36-5.29,2.87-10.98,5.2-15.8,8.72-9.25,6.75-14.34,16.69-18.56,27.04-7.06,17.29-10.69,35.48-13.67,53.81-1.84,11.33-3.31,22.72-5.08,35.07,1.57-1.1,2.26-1.47,2.83-1.99,24.79-22.49,51.5-42.53,79-61.52,36.72-25.36,73.99-49.95,110.31-75.87,16.5-11.77,31.73-25.47,46.66-39.24,5.35-4.94,8.1-12.68,12.16-19.07.65-1.03,1.9-2.32,2.92-2.36,5.82-.23,11.66-.11,18.77-.11-1.46,5.35-1.77,10.53-4.16,14.43-5.22,8.55-10.71,17.19-17.5,24.48-16.63,17.85-36.5,31.96-56.46,45.79-41.63,28.86-83.67,57.13-125.04,86.35-18.19,12.85-35.16,27.42-53.72,42.02Z"/></g></svg>