<?xml version="1.0" encoding="UTF-8"?><svg id="Layer_2" xmlns="http://www.w3.org/2000/svg" viewBox="0 0 442.91 389.99"><defs><style>.cls-1{fill:#272525;stroke-width:0px;}</style></defs><g id="Layer_1-2"><g id="R3oxWM.tif"><path class="cls-1" d="M220.16,389.99c-6.74-8.97-13.05-17.45-19.45-25.87-28.11-36.95-56.23-73.89-84.37-110.81-26.35-34.56-52.74-69.09-79.12-103.64-11.26-14.74-22.53-29.47-33.74-44.26-1.38-1.81-3.38-3.01-3.47-6.01-.13-4.44,1.24-7.69,4.09-11.04,19.32-22.7,38.43-45.57,57.61-68.39,3.52-4.19,7.27-8.22,10.45-12.65C76.09,1.85,81.15-.04,87.74,0c32.06.2,64.12.16,96.18.16,57.01,0,114.01,0,171.02-.16,6.56-.02,11.39,1.93,15.66,7.13,22.51,27.36,45.31,54.48,67.97,81.71,5.74,6.9,5.74,10.24.25,17.42-58.22,76.25-116.38,152.55-174.73,228.71-13.73,17.92-28.14,35.32-42.23,52.96-.46.58-.94,1.14-1.7,2.07ZM147.78,108.12c24.55,77.73,48.99,155.08,73.68,233.25,24.71-78.24,49.16-155.65,73.67-233.25h-147.35ZM412.35,107.69c-2.06,0-3.2,0-4.34,0-21.86-.03-43.72-.07-65.59-.1-7.85-.01-15.71.02-23.56-.09-2.02-.03-3.11.55-3.59,2.62-.57,2.44-1.52,4.79-2.27,7.18-18.4,58.3-36.8,116.59-55.19,174.89-3.07,9.72-6.11,19.45-9.17,29.17.15.08.3.15.45.23,54.24-71.06,108.48-142.13,163.26-213.9ZM30.62,107.83c54.51,71.41,108.61,142.29,162.71,213.17.28-1.09.1-1.96-.17-2.8-21.68-68.87-43.38-137.73-64.98-206.63-.96-3.06-2.35-4.11-5.57-4.1-29.5.16-59,.14-88.5.18-.93,0-1.86.08-3.5.16ZM221.21,26.21c-20.1,20.14-40.42,40.5-60.44,60.56h121.02c-20.35-20.35-40.72-40.71-60.58-60.56ZM342.38,20.35h-93.82c19.51,19.51,39.4,39.38,59.27,59.25,11.28-19.34,22.82-39.14,34.56-59.25ZM134.86,79.27c19.8-19.79,39.54-39.52,58.9-58.87h-93.26c11.73,20.09,23.23,39.81,34.36,58.87ZM32.04,86.76h84.15c-11.63-19.93-23.07-39.52-34.67-59.39-16.59,19.91-32.86,39.43-49.48,59.39ZM410.96,86.88c-16.71-20.03-33.02-39.59-49.63-59.5-11.66,20.01-23.07,39.59-34.67,59.5h84.3Z"/></g></g></svg>