<?xml version="1.0" encoding="UTF-8"?><svg id="Layer_2" xmlns="http://www.w3.org/2000/svg" viewBox="0 0 392.44 391.61"><defs><style>.cls-1{fill:#fff;stroke-width:0px;}</style></defs><g id="Layer_1-2"><path class="cls-1" d="M387.38,54.58c-6.36-18.43-18.29-33.76-33.59-43.16-11.28-6.93-24.58-10.86-38.45-11.36-13.15-.47-26.57,2.11-38.81,7.48-18.45,8.09-30.95,22.17-43.03,35.79-2.37,2.67-4.83,5.44-7.25,8.07-5.06,5.48-10.18,11.08-15.13,16.49-9.86,10.77-20.05,21.92-30.23,32.65l-.05.06L19.03,275.88l-.17.19c-9.44,10.72-15.84,24.38-18.01,38.45-2.34,15.16.17,29.88,7.24,42.58,8.54,15.32,23.1,26.56,41.01,31.66,6.71,1.91,13.58,2.85,20.46,2.85,11.64,0,23.27-2.71,34-8.04l.27-.13,251.51-142.38-10.93-19.31-216.48,122.55c1.7-5.77,2.62-11.88,2.62-18.2,0-35.53-28.9-64.43-64.43-64.43-1.29,0-2.58.04-3.86.11L192.49,120.69c20.5,7.06,39.35,6.95,54.58-.34,6.56-3.14,12.3-7.71,17.86-12.13,15.25-12.13,19.74-14.11,28.74-5.66,3.25,3.05,3.65,5.48,3.67,7.05.05,4.44-3.37,10.47-9.14,16.14-16.91,16.61-23.1,38.7-17.89,63.89,3.74,18.07,12.19,31.5,12.55,32.06l8.08,12.7,64.1-75.48c2.15-2.53,4.34-5,6.67-7.62,10.94-12.32,22.26-25.05,27.35-42.52,5.02-17.23,4.42-36.48-1.69-54.19ZM66.11,283.85c23.29,0,42.24,18.95,42.24,42.24s-18.95,42.24-42.24,42.24-42.24-18.95-42.24-42.24,18.95-42.24,42.24-42.24ZM367.76,102.56c-3.69,12.67-12.89,23.03-22.63,33.99-2.3,2.6-4.69,5.28-7,8l-43.19,50.86c-1.1-3.1-2.13-6.56-2.89-10.26-3.65-17.69.28-32.35,11.71-43.56,10.3-10.11,15.9-21.56,15.78-32.23-.1-8.57-3.79-16.52-10.67-22.98-7.92-7.43-16.28-11.16-24.96-11.16-2.83,0-5.68.4-8.57,1.19-9.23,2.54-16.84,8.6-24.21,14.45-4.8,3.82-9.33,7.42-13.63,9.48-8.88,4.25-19.03,3.95-27.97,2.1,6.07-6.55,12.09-13.13,17.98-19.57,4.93-5.39,10.03-10.97,15.06-16.42,2.57-2.78,5.1-5.63,7.54-8.39,10.98-12.37,21.35-24.06,35.34-30.19,18.97-8.32,40.72-7.37,56.74,2.47,10.94,6.72,19.54,17.9,24.23,31.49,4.63,13.41,5.11,27.88,1.36,40.75Z"/></g></svg>