<?xml version="1.0" encoding="UTF-8"?><svg id="Layer_2" xmlns="http://www.w3.org/2000/svg" viewBox="0 0 266.24 347.82"><defs><style>.cls-1{fill:#545859;stroke-width:0px;}</style></defs><g id="Layer_1-2"><path class="cls-1" d="M266.16,153.76c-.18-16.74-12.95-30-29.54-30.85-3.69-.19-7.4-.03-11.45-.03,0-2.05.03-3.5,0-4.95-.33-12.89.23-25.87-1.17-38.64-3.87-35.38-31.24-66.44-65.91-75.84-5.31-1.44-10.77-2.32-16.16-3.45h-17.66c-.63.21-1.25.55-1.89.62-12.89,1.41-24.97,5.37-35.98,12.17-27.25,16.83-42.64,41.17-44.94,73.24-.78,10.82-.31,21.72-.44,32.59-.01,1.3-.16,2.59-.26,4.23-3.75,0-7.14-.14-10.51.02C12.83,123.72.06,136.97.05,154.45c-.06,53.89-.06,107.78,0,161.66.02,18.14,13.72,31.7,31.86,31.7,67.47.02,134.95,0,202.42,0,1.8,0,3.64,0,5.41-.32,16.11-2.91,26.45-15.42,26.46-32.06.03-40.3,0-80.61,0-120.91,0-13.59.11-27.17-.04-40.76ZM61.72,89.34c.46-32.28,25.87-62,57.68-67.61,38.69-6.82,74.18,16.16,83.3,54.1,1.07,4.47,1.62,9.14,1.74,13.74.27,10.07.11,20.14.11,30.21,0,.88-.14,1.75-.24,2.97-6.12,0-12.1.01-18.07,0-2.42,0-1.8-1.9-1.8-3.22-.04-10.3-.05-20.6-.02-30.89.04-13.16-4.17-24.67-13.48-34.05-9.01-9.07-19.99-13.78-32.85-13.79-8.24,0-16.49-.47-24.51,2.28-19.12,6.56-31.46,23.78-31.74,44.78-.13,10.29-.03,20.6-.03,30.89v3.83h-19.87c-.1-.95-.26-1.81-.26-2.67,0-10.19-.1-20.37.05-30.55ZM102.43,87.79c.11-14.23,9.34-24.91,23.49-26.39,5.67-.59,11.57-.34,17.22.49,10.6,1.55,19.92,11.35,20.4,22.02.57,12.75.13,25.54.13,38.64h-61.25v-15.76c0-6.33-.04-12.67,0-19ZM245.69,315.02c0,8.27-4.29,12.44-12.65,12.44-66.67,0-133.35,0-200.02,0-8.25,0-12.5-4.26-12.5-12.59-.01-53.09-.02-106.18,0-159.27,0-8.21,4.15-12.32,12.31-12.32,33.51,0,67.01,0,100.52,0s66.56,0,99.84,0c8.4,0,12.5,4.05,12.5,12.48.02,53.09.02,106.18,0,159.27Z"/><path class="cls-1" d="M162.08,206.44c-5.24-14.84-20.81-23.3-36.15-19.63-12.27,2.93-21.92,13.61-23.3,25.8-1.52,13.38,5.1,25.83,17.09,31.49,2.57,1.21,3.39,2.59,3.26,5.29-.22,4.51-.06,9.05-.06,13.57,0,3.68,0,7.36,0,11.04h20.36c.03-8.29.09-16.58-.07-24.87-.05-2.66.79-3.83,3.21-4.97,14.14-6.69,20.84-23.06,15.66-37.72ZM133.34,226.88c-5.49.17-10.46-4.73-10.44-10.28.01-5.56,4.57-10.1,10.15-10.13,5.59-.03,10.19,4.46,10.27,10.01.08,5.43-4.53,10.23-9.99,10.4Z"/></g></svg>