<?xml version="1.0" encoding="UTF-8"?><svg id="Layer_2" xmlns="http://www.w3.org/2000/svg" viewBox="0 0 421.82 375.66"><defs><style>.cls-1{fill:#fff;stroke-width:0px;}</style></defs><g id="Layer_1-2"><path class="cls-1" d="M418.42,91.2c-9.89-44.8-43.56-82.38-91.17-89.76-21.72-3.36-42.67-1.03-62.43,8.94-22.01,11.1-38.03,28.45-50.49,49.37-1.06,1.78-2.12,3.57-3.13,5.26-5.38-7.81-10-15.48-15.55-22.41C174.63,16.36,148.07.5,113.55.08c-24.71-.3-47.23,6.57-66.71,21.72C16.81,45.14,2.53,76.86.24,114.26c-1.93,31.59,7.94,59.95,25.05,86.09,14.91,22.78,33.15,42.81,53.37,60.8,34.01,30.27,68.43,60.06,102.8,89.92,2.07,1.8,4.14,3.59,6.2,5.39l19.25,15.46,4.65,3.74,6.9-5.7,5.06-4.18c.58-.5,1.16-.99,1.73-1.49,29.02-24.95,58.1-49.83,86.97-74.95,26.53-23.08,52.56-46.7,74.14-74.69,13.93-18.06,25.25-37.53,30.99-59.8,1.94-7.52,2.99-15.26,4.46-22.9v-22.24c-1.12-6.17-2.05-12.39-3.4-18.51ZM380.05,179.71c-14.77,24.96-34.32,46-55.76,65.13-36.97,32.98-74.61,65.21-111.97,97.76-.4.35-.87.59-1.53,1.03-9.52-8.16-19.04-16.2-28.43-24.4-28.33-24.73-56.9-49.2-84.82-74.4-21.23-19.17-40.85-39.95-55.52-64.8-19.25-32.61-22.84-66.6-8.3-102.01,13.89-33.83,46.33-54.86,82.74-53.08,21.46,1.05,39.11,10.68,53.74,26.11,11.56,12.19,19.69,26.48,25.99,41.87h29.52c.79-1.98,1.6-3.95,2.49-5.88,8.61-18.67,19.71-35.47,36.79-47.63,17.64-12.55,37.14-16.87,58.48-13.46,37.16,5.94,63.66,35.65,71.2,72.81,5.88,28.93.26,55.79-14.63,80.95Z"/></g></svg>