<?xml version="1.0" encoding="UTF-8"?><svg id="Layer_2" xmlns="http://www.w3.org/2000/svg" viewBox="0 0 786.87 162.19"><defs><style>.cls-1{stroke-width:0px;}</style></defs><g id="Layer_1-2"><path class="cls-1" d="M137.2,157.8h-35.86l-5.55-17.35-33.78-44.42H27.53v40.26l4.4,21.52H0l3.7-21.52V25.68L0,4.16h72.19c36.79,0,54.14,16.2,54.14,45.35,0,22.67-13.88,38.41-40.26,42.8l51.13,65.48ZM65.48,78.67c23.14,0,37.25-9.95,37.25-29.15s-10.87-29.15-34.01-29.15H27.07v58.3h38.41Z"/><path class="cls-1" d="M163.65,106.2V25.68l-3.7-21.52h31.23l-3.7,21.52v81.91c0,25.22,15.73,37.25,43.96,37.25s44.42-11.8,44.42-37.25V25.68l-3.7-21.52h28.46l-3.7,21.52v80.52c0,37.48-23.14,55.99-66.63,55.99s-66.64-18.51-66.64-55.99Z"/><path class="cls-1" d="M334.24,80.29c0-52.29,31.93-80.29,74.96-80.29,16.43,0,32.39,3.01,48.13,8.56l3.93,26.15-24.53-13.42c-9.02-2.31-18.05-3.24-25.68-3.24-29.15,0-52.06,19.67-52.06,61.78s22.44,63.86,53.91,63.86c7.17,0,15.96-.93,25.22-3.47l24.06-13.65-3.93,26.61c-15.96,5.55-30.31,8.56-46.97,8.56-45.35,0-77.05-29.15-77.05-81.44Z"/><path class="cls-1" d="M500.58,136.28V25.68l-3.7-21.52h31.23l-3.7,21.52v44.89h83.06V25.68l-3.7-21.52h31.24l-3.7,21.52v110.6l3.7,21.52h-31.24l3.7-21.52v-48.13h-83.06v48.13l3.7,21.52h-31.23l3.7-21.52Z"/><path class="cls-1" d="M786.87,135.58l-3.47,22.21h-115.92l3.7-21.52V25.68l-3.7-21.52h114.76l3.24,22.21-21.52-5.09h-69.18v49.51h51.13l17.82-2.54v21.75l-17.82-2.55h-51.13v53.22h70.34l21.75-5.09Z"/></g></svg>