<?xml version="1.0" encoding="UTF-8"?><svg id="Layer_2" xmlns="http://www.w3.org/2000/svg" viewBox="0 0 428.04 418.8"><defs><style>.cls-1{fill:#070707;stroke-width:0px;}</style></defs><g id="Layer_1-2"><polygon class="cls-1" points="275.03 393.54 386.08 393.54 212.49 224.65 39.02 393.42 152.57 392.74 152.72 417.89 .55 418.8 .55 265.8 25.7 265.8 25.7 371.29 194.46 207.11 25.4 42.63 26.06 152.12 .91 152.27 0 .1 153 .1 153 25.25 43.61 25.25 212.49 189.56 381.19 25.43 275.47 26.06 275.32 .91 427.48 0 427.48 153 402.33 153 402.33 39.95 230.52 207.11 402.62 374.54 401.97 266.68 427.12 266.53 428.04 418.69 275.03 418.69 275.03 393.54"/></g></svg>