<?xml version="1.0" encoding="UTF-8"?><svg id="Layer_2" xmlns="http://www.w3.org/2000/svg" viewBox="0 0 786.87 653.94"><defs><style>.cls-1{fill:#3d3935;stroke-width:0px;}</style></defs><g id="Layer_1-2"><path class="cls-1" d="M269.51,648.68v-27.88l-.81-5.26h16.95c8.56,0,12.26,3.99,12.26,10.07,0,4.4-2.31,7.17-7.12,8.33,6.19,1.04,9.78,4.45,9.78,9.54,0,6.48-4.4,10.47-13.3,10.47h-18.57l.81-5.26ZM283.8,632.6c6.31,0,9.6-2.43,9.6-6.71s-2.55-7.11-8.79-7.11h-10.64v13.82h9.83ZM286.57,650.71c6.25,0,9.08-2.89,9.08-7.52s-3.88-7.46-10.07-7.46h-11.63v14.98h12.61Z"/><path class="cls-1" d="M373.86,653.94h-5.96l-.98-4.97-1.91-4.57h-19.78l-1.97,4.57-.98,4.97h-5.32l15.33-35.92-1.21-2.49h6.54l16.26,38.41ZM363.56,641.04l-8.44-20.07-8.5,20.07h16.95Z"/><path class="cls-1" d="M413.48,648.68v-27.88l-.81-5.26h16.95c8.56,0,12.26,3.99,12.26,10.07,0,4.4-2.31,7.17-7.12,8.33,6.19,1.04,9.78,4.45,9.78,9.54,0,6.48-4.4,10.47-13.3,10.47h-18.57l.81-5.26ZM427.77,632.6c6.31,0,9.6-2.43,9.6-6.71s-2.55-7.11-8.79-7.11h-10.64v13.82h9.83ZM430.55,650.71c6.25,0,9.08-2.89,9.08-7.52s-3.88-7.46-10.07-7.46h-11.63v14.98h12.61Z"/><path class="cls-1" d="M500.25,648.68l.81,5.26h-6.07l.81-5.26v-9.37l-16.2-23.78h6.94l1.97,5.38,9.89,15.04,9.83-15.04,2.02-5.38h6.13l-16.14,23.83v9.31Z"/><path class="cls-1" d="M342.52,3.24l-21.06-3.24v25.22s21.06-3.93,21.06-3.93h42.8v37.25s-47.2,37.71-47.2,37.71l-16.66,6.48v.08h-.71s0,112,0,112h.1v5.29s21.06-3.24,21.06-3.24h111.52s21.06,3.24,21.06,3.24v-25.22s-21.06,3.93-21.06,3.93h-42.8v-37.25s47.2-37.71,47.2-37.71l16.66-6.48v-.74h.03s0-37.1,0-37.1c.37-3.46.57-7.14.57-11.04V0s-21.06,3.24-21.06,3.24h-111.52ZM398.98,20.82h63.4v45.35c0,24.99-11.34,37.25-31.7,37.25-20.59,0-31.7-15.5-31.7-40.49V20.82ZM396.99,199.27h-63.4v-45.35c0-24.99,11.34-37.25,31.7-37.25,20.59,0,31.7,15.5,31.7,40.49v42.11ZM408.09,142.59c-3.24-28.46-18.97-43.96-42.8-43.96-1.25,0-2.46.03-3.67.1l26.25-21.22c3.24,28.46,18.97,43.96,42.8,43.96,1.25,0,2.46-.03,3.67-.1l-26.25,21.22Z"/><path class="cls-1" d="M137.2,531.07h-35.86l-5.55-17.35-33.78-44.42H27.53v40.26l4.4,21.52H0l3.7-21.52v-110.6l-3.7-21.52h72.19c36.79,0,54.14,16.2,54.14,45.35,0,22.67-13.88,38.41-40.26,42.8l51.13,65.48ZM65.48,451.94c23.14,0,37.25-9.95,37.25-29.15s-10.87-29.15-34.01-29.15H27.07v58.3h38.41Z"/><path class="cls-1" d="M163.65,479.48v-80.52l-3.7-21.52h31.23l-3.7,21.52v81.91c0,25.22,15.73,37.25,43.96,37.25s44.42-11.8,44.42-37.25v-81.91l-3.7-21.52h28.46l-3.7,21.52v80.52c0,37.48-23.14,55.99-66.63,55.99s-66.64-18.51-66.64-55.99Z"/><path class="cls-1" d="M334.24,453.56c0-52.29,31.93-80.29,74.96-80.29,16.43,0,32.39,3.01,48.13,8.56l3.93,26.15-24.53-13.42c-9.02-2.31-18.05-3.24-25.68-3.24-29.15,0-52.06,19.67-52.06,61.78s22.44,63.86,53.91,63.86c7.17,0,15.96-.93,25.22-3.47l24.06-13.65-3.93,26.61c-15.96,5.55-30.31,8.56-46.97,8.56-45.35,0-77.05-29.15-77.05-81.44Z"/><path class="cls-1" d="M500.58,509.56v-110.6l-3.7-21.52h31.23l-3.7,21.52v44.89h83.06v-44.89l-3.7-21.52h31.24l-3.7,21.52v110.6l3.7,21.52h-31.24l3.7-21.52v-48.13h-83.06v48.13l3.7,21.52h-31.23l3.7-21.52Z"/><path class="cls-1" d="M786.87,508.86l-3.47,22.21h-115.92l3.7-21.52v-110.6l-3.7-21.52h114.76l3.24,22.21-21.52-5.09h-69.18v49.51h51.13l17.82-2.54v21.75l-17.82-2.55h-51.13v53.22h70.34l21.75-5.09Z"/></g></svg>