<?xml version="1.0" encoding="UTF-8"?><svg id="Layer_2" xmlns="http://www.w3.org/2000/svg" viewBox="0 0 373.3 373.3"><defs><style>.cls-1{fill:#3d3935;stroke-width:0px;}</style></defs><g id="Layer_1-2"><path class="cls-1" d="M373.3,235.13v-73.42h-49.58v-28.11h48.99V60.18h-48.99V.36h-73.42v59.82h-28.11V.95h-73.42v59.23h-23.12V0H52.22v60.18H.36v73.42h51.86v28.11H.95v73.42h51.27v23.12H0v73.42h52.22v40.67h73.42v-40.67h23.12v41.62h73.42v-41.62h28.11v41.03h73.42v-41.03h48.63v-73.42h-48.63v-23.12h49.58ZM323.72,80.38h28.78v33h-28.78v-33ZM52.22,311.46H20.21v-33h32.01v33ZM270.5,20.57h33v141.14h-33V20.57ZM353.09,181.92v33h-130.9v-33h130.9ZM250.29,235.13v23.12h-28.11v-23.12h28.11ZM222.18,161.71v-28.11h28.11v28.11h-28.11ZM168.97,21.16h33v39.02h-33V21.16ZM125.64,80.38h124.65v33h-124.65v-33ZM201.97,133.6v124.65h-33v-124.65h33ZM125.64,133.6h23.12v28.11h-23.12v-28.11ZM72.43,20.21h33v141.5h-33V20.21ZM20.57,113.39v-33h31.65v33h-31.65ZM105.43,352.14h-33v-117.01h33v117.01ZM21.16,214.92v-33h127.61v33H21.16ZM148.76,235.13v23.12h-23.12v-23.12h23.12ZM201.97,353.09h-33v-21.41h33v21.41ZM125.64,311.46v-33h124.65v33h-124.65ZM352.14,278.46v33h-28.42v-33h28.42ZM303.5,352.5h-33v-117.37h33v117.37Z"/></g></svg>