<?xml version="1.0" encoding="UTF-8"?><svg id="Layer_2" xmlns="http://www.w3.org/2000/svg" viewBox="0 0 371.9 394.44"><defs><style>.cls-1{fill:#545859;stroke-width:0px;}</style></defs><g id="Layer_1-2"><path class="cls-1" d="M241.05,207.3c-.15-.91-.32-1.82-.49-2.71l20.29-4.06c.22,1.12.43,2.27.62,3.41l-20.42,3.37Z"/><path class="cls-1" d="M100.76,394.44c-23.54,0-46.13-8.15-64.44-23.41C15.61,353.78,2.86,329.49.42,302.64c-2.44-26.85,5.72-53.04,22.98-73.75l60.95-73.13c17.26-20.71,41.55-33.46,68.4-35.9,26.85-2.44,53.04,5.72,73.75,22.98,9,7.5,16.55,16.39,22.44,26.42,5.69,9.69,9.69,20.21,11.9,31.27l-20.3,4.06c-3.63-18.13-13.07-33.98-27.3-45.84-16.46-13.72-37.29-20.21-58.63-18.27-21.34,1.94-40.65,12.07-54.37,28.54l-60.95,73.13c-13.72,16.46-20.21,37.28-18.27,58.63,1.94,21.34,12.07,40.65,28.54,54.37,16.46,13.72,37.28,20.21,58.63,18.27,21.34-1.94,40.65-12.07,54.37-28.54l44.32-53.19,15.9,13.25-44.32,53.19c-17.26,20.71-41.55,33.46-68.4,35.9-3.11.28-6.22.42-9.31.42Z"/><path class="cls-1" d="M209.83,275.01c-23.54,0-46.13-8.15-64.44-23.41-20.34-16.96-33.05-40.8-35.78-67.14l20.59-2.13c2.17,20.94,12.27,39.89,28.44,53.37,16.46,13.72,37.29,20.21,58.63,18.27,21.34-1.94,40.65-12.07,54.37-28.54l60.95-73.13c13.72-16.46,20.21-37.28,18.27-58.63-1.94-21.34-12.07-40.65-28.54-54.37-16.46-13.72-37.29-20.21-58.63-18.27-21.34,1.94-40.65,12.07-54.37,28.54l-45.73,54.87-15.9-13.25,45.73-54.87C210.69,15.61,234.98,2.86,261.83.42c26.85-2.44,53.04,5.72,73.75,22.98,20.71,17.26,33.46,41.55,35.9,68.4,2.44,26.85-5.72,53.04-22.98,73.75l-60.95,73.13c-17.26,20.71-41.55,33.46-68.4,35.9-3.11.28-6.22.42-9.31.42Z"/></g></svg>