<?xml version="1.0" encoding="UTF-8"?><svg id="Layer_2" xmlns="http://www.w3.org/2000/svg" viewBox="0 0 416.31 416.31"><defs><style>.cls-1{fill:#070707;stroke-width:0px;}</style></defs><g id="Layer_1-2"><path class="cls-1" d="M208.16,0C93.2,0,0,93.2,0,208.16s93.2,208.16,208.16,208.16,208.16-93.2,208.16-208.16S323.12,0,208.16,0ZM36.8,280.54c-9.69-22.91-14.61-47.26-14.61-72.38s4.92-49.47,14.61-72.38c9.36-22.14,22.78-42.03,39.86-59.12,17.09-17.08,36.98-30.5,59.12-39.86,22.91-9.69,47.27-14.61,72.38-14.61s49.47,4.92,72.38,14.61c19.49,8.24,37.24,19.63,52.86,33.89l-90.09,89.82c-4.83-9.04-9.68-18.08-14.51-27.12-7.57-14.16-15.15-28.32-22.73-42.47-.47.9-.93,1.79-1.4,2.69-6.29,12.06-12.58,24.13-18.88,36.19-12.45,24.83-25.37,49.57-38.71,73.93-4.25,7.76-9.07,15.35-11.96,23.76-2.71,7.9-4.09,16.23-4.09,24.58,0,6.27.77,12.36,2.21,18.19l-62.93,62.73c-14.08-15.52-25.33-33.12-33.5-52.44ZM251.41,222.84c5.7,10.72,8.35,20.01,8.35,29.22,0,14.23-5.54,27.61-15.6,37.67-10.06,10.06-23.44,15.6-37.67,15.6s-27.61-5.54-37.67-15.6c-10.06-10.06-15.6-23.44-15.6-37.67,0-5.95.97-11.79,2.88-17.35,1.6-4.65,4.45-9.68,7.46-15,.98-1.72,1.98-3.5,2.98-5.32,12.97-23.69,26.1-48.75,39.01-74.49l.77-1.48,2.91,5.44,5.23,9.76c12.14,22.68,24.69,46.13,36.96,69.22ZM339.65,339.65c-17.09,17.09-36.97,30.5-59.12,39.86-22.91,9.69-47.26,14.61-72.38,14.61s-49.47-4.92-72.38-14.61c-18.16-7.68-34.8-18.08-49.63-31l56.45-56.27c13.36,21.2,36.98,35.28,63.89,35.28,41.68,0,75.46-33.79,75.46-75.46,0-14.24-4.33-27.2-10.94-39.63-5.58-10.5-11.17-20.99-16.77-31.48l94.66-94.36c12.75,14.72,23.02,31.21,30.63,49.19,9.69,22.91,14.61,47.27,14.61,72.38s-4.92,49.47-14.61,72.38c-9.36,22.14-22.78,42.03-39.86,59.12Z"/></g></svg>