<?xml version="1.0" encoding="UTF-8"?><svg id="Layer_2" xmlns="http://www.w3.org/2000/svg" viewBox="0 0 414.84 400.74"><defs><style>.cls-1{fill:#fff;stroke-width:0px;}</style></defs><g id="Layer_1-2"><path class="cls-1" d="M367.36,299.52l17.25-1.02-1.31-22.15-18.94,1.12c-1.57-4.06-3.68-7.86-6.23-11.31l13.41-13.4-15.69-15.69-14.72,14.71c-4.45-2.26-9.29-3.85-14.39-4.65l-.72-16.69-22.17.96.76,17.45c-3.5,1.12-6.82,2.63-9.92,4.48l-12.15-12.54-15.93,15.44,12.12,12.51c-2.84,4.41-4.99,9.32-6.28,14.56l-16.53.98,1.31,22.15,15.03-.89c.92,4.04,2.34,7.89,4.21,11.48l-10.59,10.59,15.69,15.69,9.42-9.41c5.32,3.87,11.45,6.69,18.1,8.13l.74,16.9,22.17-.97-.71-16.34c4.72-1.2,9.17-3.11,13.22-5.6l11.24,11.6,15.94-15.44-11.41-11.77c3.87-6.17,6.38-13.27,7.11-20.88ZM319.31,320.92c-14.38,0-26.08-11.7-26.08-26.08s11.7-26.08,26.08-26.08,26.08,11.7,26.08,26.08-11.7,26.08-26.08,26.08Z"/><path class="cls-1" d="M409.29,133.13l5.55-21.48-31.22-8.07-.55,2.12c-.81-6.91-2.91-13.67-6.27-19.88l18.17-17.06-15.19-16.18-17.27,16.21c-8.82-6.99-18.09-13.24-27.7-18.72l11.6-18.75-18.87-11.68-12.63,20.4c-9.78-4.31-19.84-7.87-30.11-10.66l6.44-21.64-21.27-6.32-6.91,23.24c-11.42-1.86-23.03-2.81-34.74-2.8l-.61-21.87-22.18.62.62,22.4c-12.28,1.26-24.27,3.54-35.91,6.82l-6.98-23.46-21.27,6.32,7.23,24.3c-6.14,2.47-12.16,5.23-18.06,8.3-3.12,1.62-6.18,3.31-9.19,5.08l-14.94-21.56-18.24,12.64,14.69,21.2c-9.08,6.8-17.5,14.34-25.22,22.6l-18.47-18.6-15.75,15.64,19.96,20.11c-6.08,8.23-11.45,16.87-16.08,25.8l-24.73-12.62-10.09,19.76,25.72,13.13c-4.02,10.48-7.13,21.28-9.34,32.26l-24.87-5.31-4.64,21.7,26.3,5.62c-.94,10.27-1.11,20.63-.53,30.98l-25.04,2.67,2.36,22.07,25.08-2.68c1.51,9.35,3.64,18.64,6.39,27.8l-22.33,7.71,7.25,20.98,22.56-7.79c2.96,7.1,6.31,14.08,10.06,20.91l-23.82,14.04,11.27,19.12,24.2-14.27c3.16,4.58,6.51,9.06,10.06,13.44,1.83,2.26,3.81,4.35,5.93,6.25l-14.76,18.37,17.3,13.9,16.81-20.92c5.63,1.9,11.6,2.89,17.72,2.89.72,0,1.44-.01,2.16-.04l5.12,22.58,21.64-4.91-5.21-23c3.94-1.87,7.67-4.2,11.08-6.97.27-.21.53-.43.79-.66l18.5,18.77,15.8-15.58-20.43-20.73c2.09-4.17,3.64-8.61,4.62-13.24l21.69-4.72-4.72-21.68-16.88,3.67c-1.58-7.72-4.83-15.05-9.61-21.53l14.51-6.38-8.93-20.32-18.23,8.01c-3.74-6.94-6.69-14.26-8.81-21.79l23.69-4.89-4.49-21.73-22.87,4.73c-.07-1.25-.12-2.51-.15-3.77-.18-8.56.74-16.95,2.67-24.93l19.75,9.1,9.28-20.16-21.18-9.75c2.39-4.49,5.17-8.74,8.31-12.67,2.95-3.69,6.25-7.12,9.84-10.27l11.81,15.33,17.58-13.54-10.92-14.17c10.54-5.31,22.35-8.75,34.76-9.97.32-.03.64-.06.95-.09l-5.18,17.89,21.31,6.17,6.83-23.59c12.22,1.61,24.06,5.36,35.04,11.12l-12.9,23.7,19.49,10.61,11.99-22.02c7.52,5.51,16.02,8.84,24.72,10.08l-2.66,19.29,21.98,3.03,3.27-23.74c7.02-1.92,13.71-5.24,19.6-9.89l15.31,16.02,16.04-15.33-16.99-17.78c2.16-3.99,3.79-8.18,4.89-12.46l27.59,7.13ZM354.11,132.71c-11.34,14.31-32.21,16.71-46.52,5.37-26.18-20.76-58.77-30.41-91.77-27.18-31.42,3.08-59.93,17.97-78.23,40.85-15.84,19.81-24.26,45.64-23.7,72.73.58,27.95,10.74,55.5,28.62,77.56,5.57,6.87,8.13,15.5,7.2,24.3-.92,8.8-5.21,16.71-12.09,22.28-5.96,4.83-13.16,7.39-20.82,7.39-10.05,0-19.44-4.47-25.76-12.27-55.94-69.04-58.11-167.18-5.18-233.36,15.02-18.77,33.7-34.04,55.54-45.38,21.01-10.91,43.87-17.64,67.95-20.01,6.37-.63,12.73-.93,19.06-.93,43.52,0,85.66,14.64,120.32,42.13,14.31,11.34,16.71,32.21,5.37,46.52Z"/></g></svg>