<?xml version="1.0" encoding="UTF-8"?><svg id="Layer_2" xmlns="http://www.w3.org/2000/svg" xmlns:xlink="http://www.w3.org/1999/xlink" viewBox="0 0 3370.39 2383.94"><defs><style>.cls-1{fill:none;}.cls-1,.cls-2,.cls-3,.cls-4{stroke-width:0px;}.cls-2{fill:url(#New_Pattern);}.cls-3{fill:#3d3935;}.cls-4{fill:#faf9f8;}</style><pattern id="New_Pattern" x="0" y="0" width="68.03" height="93.54" patternTransform="translate(-1139.94 -493.44)" patternUnits="userSpaceOnUse" viewBox="0 0 68.03 93.54"><rect class="cls-1" y="0" width="68.03" height="93.54"/><path class="cls-3" d="M28.28,2.77l4.08-.63v13.28c0,.76-.04,1.47-.11,2.14v7.19h0v.14l-3.23,1.26-9.15,7.31v7.22s8.3,0,8.3,0l4.08-.76v4.89s-4.08-.63-4.08-.63H6.53s-4.08.63-4.08.63v-1.03s-.02,0-.02,0v-21.72h.14s0-.02,0-.02l3.23-1.26,9.15-7.31v-7.22s-8.3,0-8.3,0l-4.08.76V2.14s4.08.63,4.08.63h21.63ZM17.6,14.35c0,4.85,2.15,7.85,6.15,7.85s6.15-2.38,6.15-7.22V6.18s-12.29,0-12.29,0v8.17ZM17.21,32.62c0-4.85-2.15-7.85-6.15-7.85s-6.15,2.38-6.15,7.22v8.79s12.29,0,12.29,0v-8.17ZM24.45,25.68c-.23.01-.47.02-.71.02-4.62,0-7.67-3.01-8.3-8.52l-5.09,4.11c.23-.01.47-.02.71-.02,4.62,0,7.67,3.01,8.3,8.52l5.09-4.11Z"/><path class="cls-3" d="M39.98,44.12l-4.08.63v-4.89s4.08.76,4.08.76h8.3v-7.22s-9.15-7.31-9.15-7.31l-3.23-1.26v-.02h-.14s0-21.72,0-21.72h.02v-1.03s4.08.63,4.08.63h21.63s4.08-.63,4.08-.63v4.89s-4.08-.76-4.08-.76h-8.3v7.22s9.15,7.31,9.15,7.31l3.23,1.26v.14h0v7.19c.07.67.11,1.38.11,2.14v13.28s-4.08-.63-4.08-.63h-21.63ZM50.93,40.71h12.29v-8.79c0-4.85-2.2-7.22-6.15-7.22s-6.15,3.01-6.15,7.85v8.17ZM50.54,6.1h-12.29v8.79c0,4.85,2.2,7.22,6.15,7.22s6.15-3.01,6.15-7.85V6.1ZM52.7,17.1c-.63,5.52-3.68,8.52-8.3,8.52-.24,0-.48,0-.71-.02l5.09,4.11c.63-5.52,3.68-8.52,8.3-8.52.24,0,.48,0,.71.02l-5.09-4.11Z"/><path class="cls-3" d="M61.54,49.43l4.08-.63v4.89l-4.08-.76h-8.3s0,7.22,0,7.22l9.15,7.31,3.23,1.26v.02h.14v21.72h-.02v1.03l-4.08-.63h-21.63l-4.08.63v-4.89l4.08.76h8.3v-7.22s-9.15-7.31-9.15-7.31l-3.23-1.26v-.14h0v-7.19c-.07-.67-.11-1.38-.11-2.14v-13.28l4.08.63h21.63ZM50.59,52.84h-12.29v8.79c0,4.85,2.2,7.22,6.15,7.22s6.15-3.01,6.15-7.85v-8.17ZM50.98,87.44h12.29s0-8.79,0-8.79c0-4.85-2.2-7.22-6.15-7.22s-6.15,3.01-6.15,7.85v8.17ZM48.82,76.45c.63-5.52,3.68-8.52,8.3-8.52.24,0,.48,0,.71.02l-5.09-4.11c-.63,5.52-3.68,8.52-8.3,8.52-.24,0-.48,0-.71-.02l5.09,4.11Z"/><path class="cls-3" d="M6.36,90.84l-4.08.63v-13.28c0-.76.04-1.47.11-2.14v-7.19h0v-.14s3.23-1.26,3.23-1.26l9.15-7.31v-7.22s-8.3,0-8.3,0l-4.08.76v-4.89s4.08.63,4.08.63h21.63s4.08-.63,4.08-.63v1.03s.02,0,.02,0v21.72h-.14s0,.02,0,.02l-3.23,1.26-9.15,7.31v7.22s8.3,0,8.3,0l4.08-.76v4.89s-4.08-.63-4.08-.63H6.36ZM17.03,79.27c0-4.85-2.15-7.85-6.15-7.85s-6.15,2.38-6.15,7.22v8.79s12.29,0,12.29,0v-8.17ZM17.42,61c0,4.85,2.15,7.85,6.15,7.85s6.15-2.38,6.15-7.22v-8.79s-12.29,0-12.29,0v8.17ZM10.18,67.94c.23-.01.47-.02.71-.02,4.62,0,7.67,3.01,8.3,8.52l5.09-4.11c-.23.01-.47.02-.71.02-4.62,0-7.67-3.01-8.3-8.52l-5.09,4.11Z"/></pattern></defs><g id="Layer_1-2"><rect class="cls-4" y="0" width="3370.39" height="2383.94"/><rect class="cls-2" width="3370.39" height="2383.94"/></g></svg>