<?xml version="1.0" encoding="UTF-8"?><svg id="Layer_2" xmlns="http://www.w3.org/2000/svg" viewBox="0 0 444.3 633.6"><defs><style>.cls-1{fill:#faf9f8;stroke-width:0px;}</style></defs><g id="Layer_1-2"><path class="cls-1" d="M62.64,9.32L2.03,0v72.6s60.61-11.32,60.61-11.32h123.22v107.24s-135.88,108.57-135.88,108.57l-47.96,18.65v.23H0s0,322.41,0,322.41h.3v15.22s60.61-9.33,60.61-9.33h321.05s60.61,9.33,60.61,9.33v-72.6s-60.61,11.32-60.61,11.32h-123.22v-107.24s135.88-108.57,135.88-108.57l47.96-18.65v-2.13h.1s0-106.8,0-106.8c1.07-9.96,1.63-20.55,1.63-31.77V0s-60.61,9.32-60.61,9.32H62.64ZM225.16,59.95h182.5v130.55c0,71.94-32.64,107.24-91.25,107.24-59.28,0-91.25-44.63-91.25-116.56V59.95ZM219.44,573.65H36.93v-130.55c0-71.94,32.64-107.24,91.25-107.24,59.28,0,91.25,44.63,91.25,116.56v121.22ZM251.41,410.47c-9.33-81.93-54.62-126.55-123.22-126.55-3.6,0-7.09.1-10.56.3l75.57-61.08c9.33,81.93,54.62,126.55,123.22,126.55,3.6,0,7.09-.1,10.56-.3l-75.57,61.08Z"/></g></svg>